<?xml version="1.0" standalone="no"?><!DOCTYPE svg PUBLIC "-//W3C//DTD SVG 1.1//EN" "http://www.w3.org/Graphics/SVG/1.1/DTD/svg11.dtd"><svg t="1591943201544" class="icon" viewBox="0 0 1024 1024" version="1.1" xmlns="http://www.w3.org/2000/svg" p-id="11525" xmlns:xlink="http://www.w3.org/1999/xlink" width="64" height="64"><defs><style type="text/css"></style></defs><path d="M509 52C260 52 58.2 253.8 58.2 502.8S260 953.6 509 953.6s450.8-201.8 450.8-450.8S758 52 509 52z m225.4 501.6H555.2v174.7c0 25.2-20.4 45.7-45.7 45.7-25.2 0-45.7-20.4-45.7-45.7V553.6H283.6c-25.2 0-45.7-20.4-45.7-45.7 0-25.2 20.4-45.7 45.7-45.7h180.3V277.4c0-25.2 20.4-45.7 45.7-45.7 25.2 0 45.7 20.4 45.7 45.7v184.9h179.3c25.2 0 45.7 20.4 45.7 45.7-0.2 25.1-20.7 45.6-45.9 45.6z" p-id="11526" fill="#bfbfbf"></path></svg>