<?xml version="1.0" standalone="no"?><!DOCTYPE svg PUBLIC "-//W3C//DTD SVG 1.1//EN" "http://www.w3.org/Graphics/SVG/1.1/DTD/svg11.dtd"><svg t="1591943229811" class="icon" viewBox="0 0 1024 1024" version="1.1" xmlns="http://www.w3.org/2000/svg" p-id="13557" xmlns:xlink="http://www.w3.org/1999/xlink" width="64" height="64"><defs><style type="text/css"></style></defs><path d="M179.249 30.964h677.693a134.095 134.095 0 0 1 134.095 134.095v677.742a134.095 134.095 0 0 1-134.095 134.095H179.249A134.095 134.095 0 0 1 45.154 842.801V165.059A134.095 134.095 0 0 1 179.249 30.964z m90.16 238.446a46.129 46.129 0 1 0 0 92.257 46.129 46.129 0 0 0 0-92.209z m131.414 9.606a36.571 36.571 0 0 0 0 73.142h375.515a36.571 36.571 0 0 0 0-73.142H400.872zM269.41 457.826a46.129 46.129 0 1 0 0 92.208 46.129 46.129 0 0 0 0-92.208z m131.413 9.557a36.571 36.571 0 1 0 0 73.143h375.515a36.571 36.571 0 0 0 0-73.143H400.872zM269.41 646.193a46.129 46.129 0 1 0 0 92.209 46.129 46.129 0 0 0 0-92.21z m131.413 9.557a36.571 36.571 0 0 0 0 73.143h375.515a36.571 36.571 0 0 0 0-73.143H400.872z" p-id="13558" fill="#bfbfbf"></path></svg>